<svg width="164" height="109" viewBox="0 0 164 109" fill="none" xmlns="http://www.w3.org/2000/svg">
<path d="M23.1634 85.4578L12.2695 63.4107H23.1634L36.5046 85.4578L64.567 52.6221L44.4847 99.708H30.8045L23.1634 85.4578Z" fill="white"/>
<path d="M69.6205 79.4593C71.5085 79.4593 73.0605 80.1793 74.2765 81.6193C75.5085 83.0593 76.1245 84.8913 76.1245 87.1153C76.1245 89.9313 75.3965 92.2033 73.9405 93.9313C72.4845 95.6593 70.5725 96.5233 68.2045 96.5233C66.3645 96.5233 64.8205 95.7873 63.5725 94.3153C62.3245 92.8273 61.7005 90.9953 61.7005 88.8193C61.7005 86.0993 62.4445 83.8593 63.9325 82.0993C65.4205 80.3393 67.3165 79.4593 69.6205 79.4593ZM72.8605 88.4593C72.8605 84.4113 71.5325 82.3873 68.8765 82.3873C67.6605 82.3873 66.7005 82.8433 65.9965 83.7553C65.3085 84.6513 64.9645 86.0033 64.9645 87.8113C64.9645 89.6033 65.3325 91.0833 66.0685 92.2513C66.8205 93.4033 67.8045 93.9793 69.0205 93.9793C70.2525 93.9793 71.1965 93.4913 71.8525 92.5153C72.5245 91.5233 72.8605 90.1713 72.8605 88.4593ZM76.8477 82.4593L77.1117 79.6993H88.5117L88.2477 82.4593L84.0717 82.0993L83.9757 90.0193L84.2637 96.2593H80.9037L81.1917 90.4273L81.0957 82.1233L76.8477 82.4593ZM90.4395 96.2593L90.7275 90.4273L90.4395 79.6993H99.4395L99.1755 82.2673H93.7755L93.6315 86.5153H98.4315L98.1675 89.0593H93.5355L93.5115 90.0193L93.6795 93.7153H99.4875L99.2235 96.2593H90.4395ZM106.548 89.8753H105.18V90.0193L105.468 96.2593H102.252L102.54 90.4273L102.252 79.6993H107.46C108.996 79.6993 110.22 80.1153 111.132 80.9473C112.044 81.7793 112.5 82.8833 112.5 84.2593C112.5 85.2993 112.228 86.2513 111.684 87.1153C111.156 87.9633 110.436 88.6353 109.524 89.1313L113.7 95.0353L110.796 96.5233L107.052 89.8513C106.94 89.8673 106.772 89.8753 106.548 89.8753ZM106.596 82.1233H105.42L105.252 87.5473H106.884C107.684 87.5473 108.3 87.2833 108.732 86.7553C109.18 86.2273 109.404 85.4753 109.404 84.4993C109.404 82.9153 108.468 82.1233 106.596 82.1233ZM119.558 79.5793L119.222 90.0193L119.51 96.2593H116.15L116.438 90.4273L116.15 80.1793L119.558 79.5793ZM132.585 96.4753L128.577 90.2593L124.713 96.4993L122.121 95.2273L126.849 88.0273L121.761 81.4993L124.737 79.5553L128.601 85.5553L132.321 79.4593L134.841 80.9473L130.449 87.7873L135.537 94.6033L132.585 96.4753Z" fill="white"/>
<path d="M0 51.7023C0 51.0572 0.522974 50.5342 1.1681 50.5342H37.6578V54.9073H22.1088H4.61079C4.1441 54.9073 3.76578 55.2857 3.76578 55.7524V104.207C3.76578 104.688 4.15523 105.077 4.63564 105.077H53.9074C54.3315 105.077 54.6809 104.745 54.7018 104.321L55.029 97.6672L58.5518 97.5457V107.065C58.5518 107.779 57.9732 108.357 57.2595 108.357H1.26751C0.56748 108.357 0 107.79 0 107.09V51.7023Z" fill="white"/>
<path opacity="0.72" d="M5.57448 57.0745C5.57843 56.5473 6.00689 56.1221 6.53406 56.1221H36.5181V59.7147H23.7443H9.3082C8.95864 59.7147 8.67527 59.9981 8.67527 60.3476V100.338C8.67527 100.665 8.94036 100.93 9.26736 100.93H49.9646C50.2585 100.93 50.5007 100.699 50.5151 100.406L50.7888 94.8425L53.6828 94.7427L53.2563 102.977C53.2271 103.541 52.7611 103.984 52.1961 103.984H6.27177C5.69364 103.984 5.22619 103.513 5.23052 102.935L5.57448 57.0745Z" fill="white"/>
</svg>
