<svg width="56" height="37" viewBox="0 0 56 37" fill="none" xmlns="http://www.w3.org/2000/svg">
<path d="M7.85081 28.9672L4.1582 21.494H7.85081L12.373 28.9672L31.2961 5.25269L15.078 33.7975H10.4409L7.85081 28.9672Z" fill="url(#paint0_linear_292_6808)"/>
<path d="M24.7007 25.3504C25.5815 25.3504 26.3056 25.6863 26.8729 26.3581C27.4477 27.0299 27.735 27.8846 27.735 28.9222C27.735 30.2359 27.3954 31.2959 26.7161 32.102C26.0369 32.9082 25.1449 33.3113 24.0401 33.3113C23.1817 33.3113 22.4614 32.9679 21.8792 32.2812C21.2969 31.587 21.0058 30.7323 21.0058 29.7171C21.0058 28.4482 21.3529 27.4031 22.0471 26.5821C22.7413 25.761 23.6259 25.3504 24.7007 25.3504ZM26.2123 29.5492C26.2123 27.6607 25.5927 26.7164 24.3536 26.7164C23.7863 26.7164 23.3385 26.9292 23.01 27.3546C22.6891 27.7726 22.5286 28.4034 22.5286 29.2469C22.5286 30.0829 22.7003 30.7734 23.0436 31.3183C23.3945 31.8557 23.8535 32.1244 24.4208 32.1244C24.9956 32.1244 25.436 31.8968 25.742 31.4414C26.0555 30.9786 26.2123 30.3479 26.2123 29.5492ZM28.0724 26.75L28.1956 25.4624H33.514L33.3909 26.75L31.4426 26.5821L31.3979 30.277L31.5322 33.1881H29.9647L30.099 30.4673L30.0542 26.5933L28.0724 26.75ZM34.4134 33.1881L34.5478 30.4673L34.4134 25.4624H38.6122L38.489 26.6604H35.9698L35.9026 28.6422H38.1419L38.0188 29.8291H35.8578L35.8466 30.277L35.925 32.0013H38.6346L38.5114 33.1881H34.4134ZM41.9285 30.2098H41.2903V30.277L41.4247 33.1881H39.9243L40.0587 30.4673L39.9243 25.4624H42.354C43.0706 25.4624 43.6416 25.6565 44.0671 26.0446C44.4926 26.4328 44.7053 26.9478 44.7053 27.5898C44.7053 28.0749 44.5784 28.5191 44.3246 28.9222C44.0783 29.3178 43.7424 29.6313 43.3169 29.8627L45.2651 32.6171L43.9103 33.3113L42.1637 30.1986C42.1114 30.2061 42.033 30.2098 41.9285 30.2098ZM41.9509 26.5933H41.4023L41.3239 29.1237H42.0853C42.4585 29.1237 42.7459 29.0005 42.9474 28.7542C43.1564 28.5079 43.2609 28.1571 43.2609 27.7017C43.2609 26.9627 42.8243 26.5933 41.9509 26.5933ZM47.9983 25.4064L47.8415 30.277L47.9759 33.1881H46.4083L46.5427 30.4673L46.4083 25.6863L47.9983 25.4064ZM54.0754 33.2889L52.2055 30.3889L50.4029 33.3001L49.1936 32.7067L51.3994 29.3476L49.0257 26.3021L50.4141 25.3952L52.2167 28.1944L53.9522 25.3504L55.1279 26.0446L53.0789 29.2357L55.4526 32.4155L54.0754 33.2889Z" fill="url(#paint1_linear_292_6808)"/>
<path d="M0 20.9998C0 18.8622 1.73291 17.1293 3.87056 17.1293H12.7646V18.6116H7.49407H4.07645C2.53006 18.6116 1.27646 19.8652 1.27646 21.4116V32.7351C1.27646 34.3269 2.56693 35.6174 4.1588 35.6174H16.0204C17.4255 35.6174 18.5838 34.5091 18.6528 33.1056L19.8469 33.0645C19.8469 35.0884 18.2062 36.7292 16.1823 36.7292H4.19998C1.8804 36.7292 0 34.8488 0 32.5292V20.9998Z" fill="#424E85"/>
<path opacity="0.86" d="M1.86949 22.1793C1.88259 20.4326 3.30232 19.0234 5.04913 19.0234H12.3795V20.2412H8.04965H5.03906C3.88077 20.2412 2.94179 21.1802 2.94179 22.3385V32.2497C2.94179 33.3333 3.82019 34.2117 4.90375 34.2117H15.3762C16.3502 34.2117 17.1528 33.4476 17.2007 32.4748L17.2167 32.1483L18.1977 32.1144C18.1068 33.87 16.6568 35.2469 14.8988 35.2469H5.2478C3.33212 35.2469 1.78319 33.6863 1.79756 31.7707L1.86949 22.1793Z" fill="#A2A8C3"/>
<defs>
<linearGradient id="paint0_linear_292_6808" x1="17.7271" y1="5.25269" x2="17.7271" y2="33.7975" gradientUnits="userSpaceOnUse">
<stop stop-color="#3457B4"/>
<stop offset="1" stop-color="#4A496A"/>
</linearGradient>
<linearGradient id="paint1_linear_292_6808" x1="38.1298" y1="26.1881" x2="38.1298" y2="33.7459" gradientUnits="userSpaceOnUse">
<stop stop-color="#3457B4"/>
<stop offset="1" stop-color="#4A496A"/>
</linearGradient>
</defs>
</svg>
