<svg width="60" height="60" viewBox="0 0 60 60" fill="none" xmlns="http://www.w3.org/2000/svg">
<path d="M23.7501 30C29.9633 30 35.0001 24.9632 35.0001 18.75C35.0001 12.5368 29.9633 7.5 23.7501 7.5C17.5369 7.5 12.5001 12.5368 12.5001 18.75C12.5001 24.9632 17.5369 30 23.7501 30Z" fill="#D0D5DD"/>
<path d="M23.7501 37.5C16.6735 37.5 10.3839 41.3614 6.39816 47.3459C5.52499 48.6569 5.0884 49.3124 5.13866 50.1498C5.1778 50.8018 5.6052 51.6 6.12618 51.994C6.79528 52.5 7.71551 52.5 9.55597 52.5H37.9442C39.7847 52.5 40.7049 52.5 41.374 51.994C41.895 51.6 42.3224 50.8018 42.3615 50.1498C42.4118 49.3124 41.9752 48.6569 41.102 47.3459C37.1162 41.3614 30.8266 37.5 23.7501 37.5Z" fill="#D0D5DD"/>
<path d="M45.0001 39.5922C48.6398 41.4206 51.7604 44.3549 54.0382 48.0241C54.4892 48.7507 54.7148 49.114 54.7928 49.6171C54.9512 50.6394 54.2521 51.8963 53.2999 52.3009C52.8314 52.5 52.3043 52.5 51.2501 52.5M40.0001 28.8306C43.7044 26.9897 46.2501 23.1672 46.2501 18.75C46.2501 14.3328 43.7044 10.5103 40.0001 8.6694M35.0001 18.75C35.0001 24.9632 29.9633 30 23.7501 30C17.5369 30 12.5001 24.9632 12.5001 18.75C12.5001 12.5368 17.5369 7.5 23.7501 7.5C29.9633 7.5 35.0001 12.5368 35.0001 18.75ZM6.39816 47.3459C10.3839 41.3614 16.6735 37.5 23.7501 37.5C30.8266 37.5 37.1162 41.3614 41.102 47.3459C41.9752 48.6569 42.4118 49.3124 42.3615 50.1498C42.3224 50.8018 41.895 51.6 41.374 51.994C40.7049 52.5 39.7847 52.5 37.9442 52.5H9.55597C7.71551 52.5 6.79528 52.5 6.12618 51.994C5.6052 51.6 5.1778 50.8018 5.13866 50.1498C5.0884 49.3124 5.52499 48.6569 6.39816 47.3459Z" stroke="#D0D5DD" stroke-linecap="round" stroke-linejoin="round"/>
</svg>
