<svg width="512" height="512" viewBox="-8 39 80 80" fill="none" xmlns="http://www.w3.org/2000/svg">
  <!-- Solid deep background with no border radius -->
  <rect x="-8" y="39" width="80" height="80" fill="#07080E" />
  
  <!-- Outer White Bracket Shape -->
  <path d="M0 51.7023C0 51.0572 0.522974 50.5342 1.1681 50.5342H37.6578V54.9073H22.1088H4.61079C4.1441 54.9073 3.76578 55.2857 3.76578 55.7524V104.207C3.76578 104.688 4.15523 105.077 4.63564 105.077H53.9074C54.3315 105.077 54.6809 104.745 54.7018 104.321L55.029 97.6672L58.5518 97.5457V107.065C58.5518 107.779 57.9732 108.357 57.2595 108.357H1.26751C0.56748 108.357 0 107.79 0 107.09V51.7023Z" fill="white"/>

  <!-- Inner Gray Bracket Shape (opacity 0.85) -->
  <path opacity="0.85" d="M5.57448 57.0745C5.57843 56.5473 6.00689 56.1221 6.53406 56.1221H36.5181V59.7147H23.7443H9.3082C8.95864 59.7147 8.67527 59.9981 8.67527 60.3476V100.338C8.67527 100.665 8.94036 100.93 9.26736 100.93H49.9646C50.2585 100.93 50.5007 100.699 50.5151 100.406L50.7888 94.8425L53.6828 94.7427L53.2563 102.977C53.2271 103.541 52.1961 103.984 52.1961 103.984H6.27177C5.69364 103.984 5.22619 103.513 5.23052 102.935L5.57448 57.0745Z" fill="white"/>

  <!-- The Checkmark / "V" letter -->
  <path d="M23.1634 85.4578L12.2695 63.4107H23.1634L36.5046 85.4578L64.567 52.6221L44.4847 99.708H30.8045L23.1634 85.4578Z" fill="white"/>
</svg>
